<?xml version="1.0" encoding="UTF-8" standalone="no"?>
<!DOCTYPE svg PUBLIC "-//W3C//DTD SVG 1.1//EN"
 "http://www.w3.org/Graphics/SVG/1.1/DTD/svg11.dtd">
<!-- Generated by graphviz version 2.44.1 (20200629.0846)
 -->
<!-- Title: dependencies Pages: 1 -->
<svg width="729pt" height="284pt"
 viewBox="0.00 0.00 729.00 284.00" xmlns="http://www.w3.org/2000/svg" xmlns:xlink="http://www.w3.org/1999/xlink">
<g id="graph0" class="graph" transform="scale(1 1) rotate(0) translate(4 280)">
<title>dependencies</title>
<polygon fill="white" stroke="transparent" points="-4,4 -4,-280 725,-280 725,4 -4,4"/>
<text text-anchor="start" x="339.51" y="-42.4" font-family="sans-serif" font-weight="bold" font-size="14.00">Legend</text>
<polygon fill="#ffffb3" stroke="transparent" points="126.5,-10 126.5,-30 146.5,-30 146.5,-10 126.5,-10"/>
<text text-anchor="start" x="150.13" y="-15.4" font-family="sans-serif" font-size="14.00"> &#160;Declarations</text>
<polygon fill="#8dd3c7" stroke="transparent" points="239.5,-10 239.5,-30 259.5,-30 259.5,-10 239.5,-10"/>
<text text-anchor="start" x="263.23" y="-15.4" font-family="sans-serif" font-size="14.00"> &#160;Module</text>
<polygon fill="#80b1d3" stroke="transparent" points="325.5,-10 325.5,-30 345.5,-30 345.5,-10 325.5,-10"/>
<text text-anchor="start" x="349.28" y="-15.4" font-family="sans-serif" font-size="14.00"> &#160;Bootstrap</text>
<polygon fill="#fdb462" stroke="transparent" points="422.5,-10 422.5,-30 442.5,-30 442.5,-10 422.5,-10"/>
<text text-anchor="start" x="446.17" y="-15.4" font-family="sans-serif" font-size="14.00"> &#160;Providers</text>
<polygon fill="#fb8072" stroke="transparent" points="518.5,-10 518.5,-30 538.5,-30 538.5,-10 518.5,-10"/>
<text text-anchor="start" x="542.23" y="-15.4" font-family="sans-serif" font-size="14.00"> &#160;Exports</text>
<g id="clust1" class="cluster">
<title>cluster_AppModule</title>
<polygon fill="none" stroke="black" stroke-dasharray="1,5" points="8,-70 8,-268 713,-268 713,-70 8,-70"/>
</g>
<g id="clust2" class="cluster">
<title>cluster_AppModule_declarations</title>
<polygon fill="none" stroke="black" points="583,-78 583,-130 705,-130 705,-78 583,-78"/>
</g>
<g id="clust6" class="cluster">
<title>cluster_AppModule_bootstrap</title>
<polygon fill="none" stroke="black" points="262,-208 262,-260 386,-260 386,-208 262,-208"/>
</g>
<g id="clust4" class="cluster">
<title>cluster_AppModule_imports</title>
<polygon fill="none" stroke="black" points="16,-78 16,-130 575,-130 575,-78 16,-78"/>
</g>
<!-- AppComponent -->
<g id="node1" class="node">
<title>AppComponent</title>
<polygon fill="#ffffb3" stroke="black" points="696.94,-122 591.06,-122 591.06,-86 696.94,-86 696.94,-122"/>
<text text-anchor="middle" x="644" y="-99.8" font-family="Times,serif" font-size="14.00">AppComponent</text>
</g>
<!-- AppModule -->
<g id="node2" class="node">
<title>AppModule</title>
<polygon fill="#8dd3c7" stroke="black" points="365.66,-187 362.66,-191 341.66,-191 338.66,-187 282.34,-187 282.34,-151 365.66,-151 365.66,-187"/>
<text text-anchor="middle" x="324" y="-164.8" font-family="Times,serif" font-size="14.00">AppModule</text>
</g>
<!-- AppComponent&#45;&gt;AppModule -->
<g id="edge1" class="edge">
<title>AppComponent&#45;&gt;AppModule</title>
<path fill="none" stroke="black" d="M644,-122.28C644,-143.32 644,-175 644,-175 644,-175 375.83,-175 375.83,-175"/>
<polygon fill="black" stroke="black" points="375.83,-171.5 365.83,-175 375.83,-178.5 375.83,-171.5"/>
</g>
<!-- AppComponent  -->
<g id="node8" class="node">
<title>AppComponent </title>
<polygon fill="#80b1d3" stroke="black" points="378.44,-252 269.56,-252 269.56,-216 378.44,-216 378.44,-252"/>
<text text-anchor="middle" x="324" y="-229.8" font-family="Times,serif" font-size="14.00">AppComponent </text>
</g>
<!-- AppModule&#45;&gt;AppComponent  -->
<g id="edge7" class="edge">
<title>AppModule&#45;&gt;AppComponent </title>
<path fill="none" stroke="black" stroke-dasharray="1,5" d="M324,-187.11C324,-187.11 324,-205.99 324,-205.99"/>
<polygon fill="black" stroke="black" points="320.5,-205.99 324,-215.99 327.5,-205.99 320.5,-205.99"/>
</g>
<!-- AppRoutingModule -->
<g id="node3" class="node">
<title>AppRoutingModule</title>
<polygon fill="#8dd3c7" stroke="black" points="567.27,-122 564.27,-126 543.27,-126 540.27,-122 438.73,-122 438.73,-86 567.27,-86 567.27,-122"/>
<text text-anchor="middle" x="503" y="-99.8" font-family="Times,serif" font-size="14.00">AppRoutingModule</text>
</g>
<!-- AppRoutingModule&#45;&gt;AppModule -->
<g id="edge2" class="edge">
<title>AppRoutingModule&#45;&gt;AppModule</title>
<path fill="none" stroke="black" d="M503,-122.02C503,-139.37 503,-163 503,-163 503,-163 375.97,-163 375.97,-163"/>
<polygon fill="black" stroke="black" points="375.97,-159.5 365.97,-163 375.97,-166.5 375.97,-159.5"/>
</g>
<!-- CoreModule -->
<g id="node4" class="node">
<title>CoreModule</title>
<polygon fill="#8dd3c7" stroke="black" points="420.26,-122 417.26,-126 396.26,-126 393.26,-122 333.74,-122 333.74,-86 420.26,-86 420.26,-122"/>
<text text-anchor="middle" x="377" y="-99.8" font-family="Times,serif" font-size="14.00">CoreModule</text>
</g>
<!-- CoreModule&#45;&gt;AppModule -->
<g id="edge3" class="edge">
<title>CoreModule&#45;&gt;AppModule</title>
<path fill="none" stroke="black" d="M349.72,-122.11C349.72,-122.11 349.72,-140.99 349.72,-140.99"/>
<polygon fill="black" stroke="black" points="346.22,-140.99 349.72,-150.99 353.22,-140.99 346.22,-140.99"/>
</g>
<!-- IconsModule -->
<g id="node5" class="node">
<title>IconsModule</title>
<polygon fill="#8dd3c7" stroke="black" points="315.87,-122 312.87,-126 291.87,-126 288.87,-122 226.13,-122 226.13,-86 315.87,-86 315.87,-122"/>
<text text-anchor="middle" x="271" y="-99.8" font-family="Times,serif" font-size="14.00">IconsModule</text>
</g>
<!-- IconsModule&#45;&gt;AppModule -->
<g id="edge4" class="edge">
<title>IconsModule&#45;&gt;AppModule</title>
<path fill="none" stroke="black" d="M299.05,-122.11C299.05,-122.11 299.05,-140.99 299.05,-140.99"/>
<polygon fill="black" stroke="black" points="295.55,-140.99 299.05,-150.99 302.55,-140.99 295.55,-140.99"/>
</g>
<!-- LoginModule -->
<g id="node6" class="node">
<title>LoginModule</title>
<polygon fill="#8dd3c7" stroke="black" points="208.49,-122 205.49,-126 184.49,-126 181.49,-122 115.51,-122 115.51,-86 208.49,-86 208.49,-122"/>
<text text-anchor="middle" x="162" y="-99.8" font-family="Times,serif" font-size="14.00">LoginModule</text>
</g>
<!-- LoginModule&#45;&gt;AppModule -->
<g id="edge5" class="edge">
<title>LoginModule&#45;&gt;AppModule</title>
<path fill="none" stroke="black" d="M162,-122.02C162,-139.37 162,-163 162,-163 162,-163 272.28,-163 272.28,-163"/>
<polygon fill="black" stroke="black" points="272.28,-166.5 282.28,-163 272.28,-159.5 272.28,-166.5"/>
</g>
<!-- UiModule -->
<g id="node7" class="node">
<title>UiModule</title>
<polygon fill="#8dd3c7" stroke="black" points="97.55,-122 94.55,-126 73.55,-126 70.55,-122 24.45,-122 24.45,-86 97.55,-86 97.55,-122"/>
<text text-anchor="middle" x="61" y="-99.8" font-family="Times,serif" font-size="14.00">UiModule</text>
</g>
<!-- UiModule&#45;&gt;AppModule -->
<g id="edge6" class="edge">
<title>UiModule&#45;&gt;AppModule</title>
<path fill="none" stroke="black" d="M61,-122.28C61,-143.32 61,-175 61,-175 61,-175 272.33,-175 272.33,-175"/>
<polygon fill="black" stroke="black" points="272.33,-178.5 282.33,-175 272.33,-171.5 272.33,-178.5"/>
</g>
</g>
</svg>
